<svg width="7" height="13" viewBox="0 0 7 13" fill="none" xmlns="http://www.w3.org/2000/svg">
<path d="M5.2751 12.5834C5.1506 12.5838 5.02759 12.5564 4.91511 12.503C4.80263 12.4497 4.70353 12.3718 4.6251 12.2751L0.600096 7.27509C0.477528 7.12598 0.410522 6.93894 0.410522 6.74592C0.410522 6.5529 0.477528 6.36586 0.600096 6.21675L4.76676 1.21675C4.90821 1.04657 5.11147 0.939553 5.33183 0.919237C5.55218 0.89892 5.77158 0.966972 5.94176 1.10842C6.11194 1.24987 6.21896 1.45313 6.23928 1.67348C6.2596 1.89384 6.19154 2.11324 6.0501 2.28342L2.3251 6.75009L5.9251 11.2168C6.027 11.3391 6.09173 11.488 6.11163 11.646C6.13153 11.8039 6.10576 11.9643 6.03738 12.1081C5.969 12.2518 5.86087 12.373 5.72578 12.4573C5.59069 12.5415 5.43429 12.5853 5.2751 12.5834Z" fill="white"/>
</svg>
