<svg width="14" height="19" viewBox="0 0 14 19" fill="none" xmlns="http://www.w3.org/2000/svg">
<path d="M0.649994 3.59061C0.649994 2.86126 0.939725 2.16179 1.45545 1.64606C1.97118 1.13034 2.67065 0.840607 3.39999 0.840607H11.1C11.8293 0.840607 12.5288 1.13034 13.0445 1.64606C13.5603 2.16179 13.85 2.86126 13.85 3.59061V17.8906C13.8499 17.992 13.8218 18.0914 13.7687 18.1778C13.7157 18.2643 13.6398 18.3343 13.5494 18.3803C13.459 18.4263 13.3577 18.4464 13.2566 18.4384C13.1555 18.4304 13.0586 18.3946 12.9766 18.335L7.24999 14.1704L1.52339 18.335C1.44137 18.3946 1.34446 18.4304 1.24337 18.4384C1.14228 18.4464 1.04095 18.4263 0.950575 18.3803C0.860197 18.3343 0.784292 18.2643 0.731246 18.1778C0.678201 18.0914 0.650081 17.992 0.649994 17.8906V3.59061Z" fill="white"/>
</svg>
