<svg width="17" height="18" viewBox="0 0 17 18" fill="none" xmlns="http://www.w3.org/2000/svg">
<path d="M9.19463 0.375846C8.93933 0.134484 8.60133 0 8.25 0C7.89867 0 7.56067 0.134484 7.30538 0.375846L0.644876 6.6706C0.440938 6.86358 0.27855 7.09617 0.167663 7.35412C0.0567752 7.61207 -0.000277162 7.88995 1.01235e-06 8.17072V15.8295C0.000365526 16.3762 0.217825 16.9005 0.604579 17.287C0.991333 17.6735 1.51573 17.8906 2.0625 17.8906H4.125C4.67201 17.8906 5.19662 17.6733 5.58341 17.2865C5.9702 16.8997 6.1875 16.3751 6.1875 15.8281V12.3906C6.1875 12.2083 6.25993 12.0334 6.38887 11.9045C6.5178 11.7755 6.69266 11.7031 6.875 11.7031H9.625C9.80734 11.7031 9.98221 11.7755 10.1111 11.9045C10.2401 12.0334 10.3125 12.2083 10.3125 12.3906V15.8281C10.3125 16.3751 10.5298 16.8997 10.9166 17.2865C11.3034 17.6733 11.828 17.8906 12.375 17.8906H14.4375C14.9845 17.8906 15.5091 17.6733 15.8959 17.2865C16.2827 16.8997 16.5 16.3751 16.5 15.8281V8.16935C16.4999 7.8887 16.4426 7.61103 16.3314 7.35333C16.2203 7.09562 16.0578 6.8633 15.8538 6.6706L9.19463 0.373096V0.375846Z" fill="white"/>
</svg>
