<svg width="19" height="19" viewBox="0 0 19 19" fill="none" xmlns="http://www.w3.org/2000/svg">
<path d="M15.394 12.8333V8.24998C15.394 5.43581 13.8906 3.07998 11.269 2.45665V1.83331C11.269 1.07248 10.6456 0.458313 9.8848 0.458313C9.12397 0.458313 8.51897 1.07248 8.51897 1.83331V2.45665C5.88814 3.07998 4.39397 5.42665 4.39397 8.24998V12.8333L3.2023 14.0158C2.6248 14.5933 3.02814 15.5833 3.84397 15.5833H15.9165C16.7323 15.5833 17.1448 14.5933 16.5673 14.0158L15.394 12.8333ZM9.8848 18.3333C10.8931 18.3333 11.7181 17.5083 11.7181 16.5H8.05147C8.05147 16.9862 8.24463 17.4525 8.58844 17.7963C8.93226 18.1402 9.39857 18.3333 9.8848 18.3333ZM5.0998 2.50248C5.4848 2.15415 5.49397 1.55831 5.1273 1.19165C4.95877 1.02395 4.73166 0.928289 4.49393 0.924868C4.25619 0.921448 4.02643 1.01053 3.85314 1.17331C2.25357 2.63197 1.19671 4.59056 0.855638 6.72831C0.773138 7.28748 1.20397 7.79165 1.7723 7.79165C2.2123 7.79165 2.5973 7.47081 2.67064 7.03081C2.94078 5.28869 3.7978 3.69107 5.0998 2.50248V2.50248ZM15.944 1.17331C15.5773 0.834146 15.009 0.843313 14.6606 1.19165C14.294 1.55831 14.3123 2.14498 14.6881 2.49331C15.9531 3.65748 16.8423 5.24331 17.1173 7.02165C17.1815 7.46165 17.5665 7.78248 18.0156 7.78248C18.5748 7.78248 19.0148 7.27831 18.9231 6.71915C18.5748 4.54665 17.5023 2.61248 15.944 1.17331V1.17331Z" fill="white"/>
</svg>
