<svg width="16" height="19" viewBox="0 0 16 19" fill="none" xmlns="http://www.w3.org/2000/svg">
<path d="M13.5245 11.4739C14.0552 11.4741 14.5654 11.6788 14.9491 12.0456C15.3327 12.4123 15.5602 12.9128 15.5842 13.4429V13.5364H8.25365V14.4522L15.5641 14.4531C15.5083 14.9397 15.3492 15.4089 15.0975 15.829L8.25365 15.8272V16.7439L14.3385 16.7457C12.9085 18.1262 10.8643 18.8082 8.24999 18.8082C5.36615 18.8082 3.17899 17.9786 1.74349 16.2965C1.21238 15.6744 0.920509 14.8833 0.920319 14.0654V13.5355C0.920198 13.2647 0.973434 12.9965 1.07698 12.7463C1.18053 12.4961 1.33237 12.2687 1.52382 12.0772C1.71527 11.8856 1.94257 11.7337 2.19276 11.63C2.44294 11.5264 2.71109 11.473 2.9819 11.473H13.5245V11.4739ZM8.24999 0.47394C8.96165 0.473227 9.66367 0.638579 10.3002 0.956846C10.9367 1.27511 11.4902 1.73751 11.9167 2.30727H8.25274V3.22302L12.452 3.22394C12.639 3.65294 12.7627 4.11494 12.8113 4.59894H8.25274V5.51561L12.8113 5.51744C12.7642 5.99175 12.643 6.45573 12.452 6.89244L8.25274 6.89061V7.80727L11.9167 7.80819C11.4478 8.43302 10.827 8.92764 10.1132 9.24509C9.39946 9.56255 8.61639 9.6923 7.83838 9.62203C7.06036 9.55175 6.31322 9.28379 5.66788 8.84358C5.02255 8.40337 4.50043 7.80553 4.15111 7.1068C3.80179 6.40807 3.63686 5.63165 3.67197 4.85126C3.70708 4.07087 3.94108 3.3124 4.35174 2.64787C4.76239 1.98333 5.33609 1.43479 6.01835 1.05431C6.70061 0.673838 7.4688 0.474058 8.24999 0.47394V0.47394Z" fill="white"/>
</svg>
