<svg width="17" height="17" viewBox="0 0 17 17" fill="none" xmlns="http://www.w3.org/2000/svg">
<path d="M16.2342 15.3231L13.1175 12.2156C14.1231 10.9345 14.6687 9.35253 14.6667 7.72393C14.6667 6.27354 14.2366 4.85571 13.4308 3.64975C12.625 2.44379 11.4797 1.50386 10.1397 0.948815C8.79969 0.393772 7.3252 0.248547 5.90268 0.531506C4.48015 0.814464 3.17347 1.5129 2.14789 2.53848C1.1223 3.56407 0.42387 4.87074 0.140911 6.29327C-0.142047 7.7158 0.00317739 9.19029 0.55822 10.5303C1.11326 11.8703 2.05319 13.0156 3.25916 13.8214C4.46512 14.6272 5.88294 15.0573 7.33334 15.0573C8.96194 15.0593 10.5439 14.5137 11.825 13.5081L14.9325 16.6248C15.0177 16.7107 15.1191 16.7789 15.2308 16.8254C15.3425 16.872 15.4623 16.8959 15.5833 16.8959C15.7043 16.8959 15.8242 16.872 15.9359 16.8254C16.0476 16.7789 16.149 16.7107 16.2342 16.6248C16.3201 16.5395 16.3883 16.4382 16.4348 16.3265C16.4814 16.2148 16.5053 16.0949 16.5053 15.9739C16.5053 15.8529 16.4814 15.7331 16.4348 15.6214C16.3883 15.5097 16.3201 15.4083 16.2342 15.3231V15.3231ZM1.83334 7.72393C1.83334 6.63613 2.15591 5.57277 2.76025 4.6683C3.3646 3.76383 4.22358 3.05888 5.22858 2.64259C6.23357 2.22631 7.33944 2.11739 8.40633 2.32961C9.47323 2.54183 10.4532 3.06566 11.2224 3.83484C11.9916 4.60403 12.5154 5.58404 12.7277 6.65094C12.9399 7.71783 12.831 8.8237 12.4147 9.82869C11.9984 10.8337 11.2934 11.6927 10.389 12.297C9.4845 12.9014 8.42113 13.2239 7.33334 13.2239C5.87465 13.2239 4.4757 12.6445 3.44425 11.613C2.4128 10.5816 1.83334 9.18262 1.83334 7.72393Z" fill="white"/>
</svg>
