<svg width="16" height="18" viewBox="0 0 16 18" fill="none" xmlns="http://www.w3.org/2000/svg">
<path d="M7.89397 8.72667C7.23397 8.72667 6.79397 9.16667 6.79397 9.82667C6.79397 10.2667 7.12397 10.5967 7.45397 10.7067L7.12397 12.2467H8.55397L8.22397 10.7067C8.66397 10.5967 8.88397 10.2667 8.88397 9.82667C8.99397 9.16667 8.55397 8.72667 7.89397 8.72667V8.72667ZM8.00397 3.99667C7.23397 3.99667 6.46397 4.54667 6.46397 5.31667V6.96667H9.43397V5.31667C9.32397 4.54667 8.77397 3.99667 8.00397 3.99667V3.99667ZM7.89397 0.366669L0.19397 3.66667V6.96667C0.30397 11.8067 3.38397 16.0967 7.89397 17.8567C12.404 16.0967 15.484 11.8067 15.594 6.96667V3.66667L7.89397 0.366669ZM12.294 12.4667C12.294 13.1267 11.854 13.5667 11.194 13.5667H4.59397C3.93397 13.5667 3.49397 13.1267 3.49397 12.4667V8.06667C3.49397 7.40667 3.93397 6.96667 4.59397 6.96667H4.92397V5.31667C5.03397 3.77667 6.35397 2.56667 7.89397 2.56667C9.43397 2.56667 10.754 3.77667 10.864 5.31667V6.96667H11.194C11.854 6.96667 12.294 7.40667 12.294 8.06667V12.4667Z" fill="white"/>
</svg>
