<svg width="18" height="19" viewBox="0 0 18 19" fill="none" xmlns="http://www.w3.org/2000/svg">
<path d="M10.5623 18.3333H7.22564C7.01658 18.3334 6.81379 18.2619 6.6509 18.1309C6.488 17.9998 6.3748 17.8171 6.33006 17.6128L5.95698 15.8858C5.45928 15.6678 4.98736 15.3951 4.54989 15.0728L2.86598 15.609C2.66666 15.6726 2.4516 15.666 2.2565 15.5905C2.06141 15.515 1.89802 15.375 1.79348 15.1938L0.121478 12.3053C0.0180275 12.124 -0.0208051 11.9128 0.0113331 11.7065C0.0434713 11.5002 0.144678 11.3109 0.298394 11.1696L1.60464 9.97792C1.54524 9.4381 1.54524 8.8934 1.60464 8.35358L0.298394 7.16467C0.14446 7.02329 0.043116 6.83382 0.0109725 6.6273C-0.0211709 6.42078 0.0177928 6.20947 0.121478 6.028L1.78981 3.13775C1.89436 2.95654 2.05774 2.81654 2.25284 2.74101C2.44793 2.66547 2.66299 2.65894 2.86231 2.7225L4.54623 3.25875C4.76989 3.09375 5.00273 2.93975 5.24289 2.80042C5.47481 2.67025 5.71314 2.552 5.95698 2.44658L6.33098 0.721417C6.3755 0.517181 6.48849 0.334297 6.65121 0.203086C6.81393 0.0718757 7.01661 0.000219969 7.22564 0H10.5623C10.7713 0.000219969 10.974 0.0718757 11.1367 0.203086C11.2995 0.334297 11.4125 0.517181 11.457 0.721417L11.8346 2.4475C12.3317 2.66683 12.8035 2.93945 13.2417 3.26058L14.9266 2.72433C15.1258 2.66101 15.3406 2.66766 15.5355 2.74318C15.7304 2.81871 15.8936 2.95857 15.9981 3.13958L17.6665 6.02983C17.8791 6.40292 17.8058 6.875 17.4896 7.16558L16.1833 8.35725C16.2427 8.89706 16.2427 9.44177 16.1833 9.98158L17.4896 11.1733C17.8058 11.4648 17.8791 11.9359 17.6665 12.309L15.9981 15.1992C15.8936 15.3805 15.7302 15.5205 15.5351 15.596C15.34 15.6715 15.125 15.6781 14.9256 15.6145L13.2417 15.0782C12.8046 15.4003 12.333 15.6727 11.8356 15.8904L11.457 17.6128C11.4123 17.8169 11.2992 17.9996 11.1365 18.1306C10.9738 18.2616 10.7712 18.3332 10.5623 18.3333V18.3333ZM8.89031 5.5C7.91785 5.5 6.98522 5.88631 6.29759 6.57394C5.60995 7.26158 5.22364 8.19421 5.22364 9.16667C5.22364 10.1391 5.60995 11.0718 6.29759 11.7594C6.98522 12.447 7.91785 12.8333 8.89031 12.8333C9.86277 12.8333 10.7954 12.447 11.483 11.7594C12.1707 11.0718 12.557 10.1391 12.557 9.16667C12.557 8.19421 12.1707 7.26158 11.483 6.57394C10.7954 5.88631 9.86277 5.5 8.89031 5.5V5.5Z" fill="white"/>
</svg>
